<svg width="181" height="19" viewBox="0 0 181 19" fill="none" xmlns="http://www.w3.org/2000/svg">
<path d="M7.9 18.35C6.46667 18.35 5.08333 18.175 3.75 17.825C2.43333 17.4583 1.35833 16.9917 0.525 16.425L2.15 12.775C2.93333 13.275 3.83333 13.6917 4.85 14.025C5.88333 14.3417 6.90833 14.5 7.925 14.5C8.60833 14.5 9.15833 14.4417 9.575 14.325C9.99167 14.1917 10.2917 14.025 10.475 13.825C10.675 13.6083 10.775 13.3583 10.775 13.075C10.775 12.675 10.5917 12.3583 10.225 12.125C9.85833 11.8917 9.38333 11.7 8.8 11.55C8.21667 11.4 7.56667 11.25 6.85 11.1C6.15 10.95 5.44167 10.7583 4.725 10.525C4.025 10.2917 3.38333 9.99167 2.8 9.625C2.21667 9.24167 1.74167 8.75 1.375 8.15C1.00833 7.53333 0.825 6.75833 0.825 5.825C0.825 4.775 1.10833 3.825 1.675 2.975C2.25833 2.125 3.125 1.44167 4.275 0.924999C5.425 0.408332 6.85833 0.149999 8.575 0.149999C9.725 0.149999 10.85 0.283332 11.95 0.55C13.0667 0.799999 14.0583 1.175 14.925 1.675L13.4 5.35C12.5667 4.9 11.7417 4.56667 10.925 4.35C10.1083 4.11667 9.31667 4 8.55 4C7.86667 4 7.31667 4.075 6.9 4.225C6.48333 4.35833 6.18333 4.54167 6 4.775C5.81667 5.00833 5.725 5.275 5.725 5.575C5.725 5.95833 5.9 6.26667 6.25 6.5C6.61667 6.71667 7.09167 6.9 7.675 7.05C8.275 7.18333 8.925 7.325 9.625 7.475C10.3417 7.625 11.05 7.81667 11.75 8.05C12.4667 8.26667 13.1167 8.56667 13.7 8.95C14.2833 9.31667 14.75 9.80833 15.1 10.425C15.4667 11.025 15.65 11.7833 15.65 12.7C15.65 13.7167 15.3583 14.6583 14.775 15.525C14.2083 16.375 13.35 17.0583 12.2 17.575C11.0667 18.0917 9.63333 18.35 7.9 18.35ZM17.0865 18L24.8115 0.499999H29.6865L37.4365 18H32.2865L26.2365 2.925H28.1865L22.1365 18H17.0865ZM21.3115 14.6L22.5865 10.95H31.1365L32.4115 14.6H21.3115ZM44.6898 8.175H52.7648V12H44.6898V8.175ZM45.0398 18H40.0898V0.499999H53.8148V4.325H45.0398V18ZM61.9299 7.275H70.0549V10.975H61.9299V7.275ZM62.2799 14.175H71.4299V18H57.3799V0.499999H71.1049V4.325H62.2799V14.175ZM76.5268 18V0.499999H84.0768C86.0268 0.499999 87.5351 0.891665 88.6018 1.675C89.6851 2.45833 90.2268 3.56667 90.2268 5C90.2268 5.95 90.0018 6.75 89.5518 7.4C89.1184 8.05 88.5184 8.54167 87.7518 8.875C87.0018 9.20833 86.1768 9.375 85.2768 9.375L85.7018 8.775C86.8184 8.775 87.7768 8.95 88.5768 9.3C89.3934 9.63333 90.0268 10.1417 90.4768 10.825C90.9268 11.4917 91.1518 12.325 91.1518 13.325C91.1518 14.8083 90.6018 15.9583 89.5018 16.775C88.4184 17.5917 86.7768 18 84.5768 18H76.5268ZM78.3768 16.475H84.5518C86.0851 16.475 87.2601 16.2167 88.0768 15.7C88.8934 15.1667 89.3018 14.325 89.3018 13.175C89.3018 12.0417 88.8934 11.2167 88.0768 10.7C87.2601 10.1667 86.0851 9.9 84.5518 9.9H78.1768V8.375H83.9518C85.3518 8.375 86.4351 8.10833 87.2018 7.575C87.9851 7.04167 88.3768 6.25 88.3768 5.2C88.3768 4.13333 87.9851 3.34167 87.2018 2.825C86.4351 2.29167 85.3518 2.025 83.9518 2.025H78.3768V16.475ZM103.674 18.15C101.441 18.15 99.6827 17.5083 98.3994 16.225C97.1161 14.9417 96.4744 13.0417 96.4744 10.525V0.499999H98.3244V10.45C98.3244 12.5167 98.7911 14.0417 99.7244 15.025C100.658 16.0083 101.974 16.5 103.674 16.5C105.391 16.5 106.716 16.0083 107.649 15.025C108.583 14.0417 109.049 12.5167 109.049 10.45V0.499999H110.849V10.525C110.849 13.0417 110.208 14.9417 108.924 16.225C107.658 17.5083 105.908 18.15 103.674 18.15ZM120.732 18V2.1H114.582V0.499999H128.732V2.1H122.582V18H120.732ZM132.938 18V0.499999H134.788V16.4H144.588V18H132.938ZM150.56 8.325H159.81V9.9H150.56V8.325ZM150.76 16.4H161.285V18H148.91V0.499999H160.91V2.1H150.76V16.4ZM166.883 18V0.499999H173.433C174.917 0.499999 176.192 0.741666 177.258 1.225C178.325 1.69167 179.142 2.375 179.708 3.275C180.292 4.15833 180.583 5.23333 180.583 6.5C180.583 7.73333 180.292 8.8 179.708 9.7C179.142 10.5833 178.325 11.2667 177.258 11.75C176.192 12.2167 174.917 12.45 173.433 12.45H167.908L168.733 11.6V18H166.883ZM178.833 18L174.333 11.65H176.333L180.858 18H178.833ZM168.733 11.75L167.908 10.875H173.383C175.133 10.875 176.458 10.4917 177.358 9.725C178.275 8.95833 178.733 7.88333 178.733 6.5C178.733 5.1 178.275 4.01667 177.358 3.25C176.458 2.48333 175.133 2.1 173.383 2.1H167.908L168.733 1.225V11.75Z" fill="#1B1B1F"/>
</svg>
